<mxfile host="app.diagrams.net" modified="2020-09-27T15:40:23.795Z" agent="5.0 (Windows NT 10.0; Win64; x64) AppleWebKit/537.36 (KHTML, like Gecko) Chrome/84.0.4147.135 Safari/537.36 OPR/70.0.3728.189" etag="Fz6GtOQesZvHxe6QYtmF" version="13.7.5" type="github">
  <diagram id="C5RBs43oDa-KdzZeNtuy" name="Page-1">
    <mxGraphModel dx="790" dy="437" grid="1" gridSize="10" guides="1" tooltips="1" connect="1" arrows="1" fold="1" page="1" pageScale="1" pageWidth="827" pageHeight="1169" math="0" shadow="0">
      <root>
        <mxCell id="WIyWlLk6GJQsqaUBKTNV-0" />
        <mxCell id="WIyWlLk6GJQsqaUBKTNV-1" parent="WIyWlLk6GJQsqaUBKTNV-0" />
        <mxCell id="hgknwM9cWNxR3NRznvna-3" style="edgeStyle=orthogonalEdgeStyle;rounded=0;orthogonalLoop=1;jettySize=auto;html=1;exitX=0.5;exitY=1;exitDx=0;exitDy=0;entryX=0.5;entryY=0;entryDx=0;entryDy=0;" parent="WIyWlLk6GJQsqaUBKTNV-1" source="hgknwM9cWNxR3NRznvna-1" target="hgknwM9cWNxR3NRznvna-2" edge="1">
          <mxGeometry relative="1" as="geometry" />
        </mxCell>
        <mxCell id="hgknwM9cWNxR3NRznvna-1" value="Начало&lt;br&gt;int main()" style="ellipse;whiteSpace=wrap;html=1;" parent="WIyWlLk6GJQsqaUBKTNV-1" vertex="1">
          <mxGeometry x="371" y="10" width="84" height="50" as="geometry" />
        </mxCell>
        <mxCell id="hgknwM9cWNxR3NRznvna-5" style="edgeStyle=orthogonalEdgeStyle;rounded=0;orthogonalLoop=1;jettySize=auto;html=1;exitX=0.5;exitY=1;exitDx=0;exitDy=0;entryX=0.5;entryY=0;entryDx=0;entryDy=0;" parent="WIyWlLk6GJQsqaUBKTNV-1" source="hgknwM9cWNxR3NRznvna-2" target="hgknwM9cWNxR3NRznvna-4" edge="1">
          <mxGeometry relative="1" as="geometry" />
        </mxCell>
        <mxCell id="hgknwM9cWNxR3NRznvna-2" value="&lt;span id=&quot;docs-internal-guid-27628ac5-7fff-94d6-fc69-b89eafbd0398&quot;&gt;&lt;span style=&quot;font-family: &amp;#34;menlo&amp;#34; ; color: rgb(0 , 0 , 128) ; background-color: transparent ; font-weight: 700 ; vertical-align: baseline&quot;&gt;int &lt;/span&gt;&lt;span style=&quot;font-family: &amp;#34;menlo&amp;#34; ; background-color: transparent ; vertical-align: baseline&quot;&gt;n,AT[&lt;/span&gt;&lt;span style=&quot;font-family: &amp;#34;menlo&amp;#34; ; color: rgb(0 , 0 , 255) ; background-color: transparent ; vertical-align: baseline&quot;&gt;10&lt;/span&gt;&lt;span style=&quot;font-family: &amp;#34;menlo&amp;#34; ; background-color: transparent ; vertical-align: baseline&quot;&gt;],BT[&lt;/span&gt;&lt;span style=&quot;font-family: &amp;#34;menlo&amp;#34; ; color: rgb(0 , 0 , 255) ; background-color: transparent ; vertical-align: baseline&quot;&gt;10&lt;/span&gt;&lt;span style=&quot;font-family: &amp;#34;menlo&amp;#34; ; background-color: transparent ; vertical-align: baseline&quot;&gt;],WT[&lt;/span&gt;&lt;span style=&quot;font-family: &amp;#34;menlo&amp;#34; ; color: rgb(0 , 0 , 255) ; background-color: transparent ; vertical-align: baseline&quot;&gt;10&lt;/span&gt;&lt;span style=&quot;font-family: &amp;#34;menlo&amp;#34; ; background-color: transparent ; vertical-align: baseline&quot;&gt;],G[&lt;/span&gt;&lt;span style=&quot;font-family: &amp;#34;menlo&amp;#34; ; color: rgb(0 , 0 , 255) ; background-color: transparent ; vertical-align: baseline&quot;&gt;10&lt;/span&gt;&lt;span style=&quot;font-family: &amp;#34;menlo&amp;#34; ; background-color: transparent ; vertical-align: baseline&quot;&gt;],i,m;&lt;/span&gt;&lt;span style=&quot;font-family: &amp;#34;menlo&amp;#34; ; background-color: transparent ; vertical-align: baseline&quot;&gt;&lt;br&gt;&lt;/span&gt;&lt;span style=&quot;font-family: &amp;#34;menlo&amp;#34; ; color: rgb(0 , 0 , 128) ; background-color: transparent ; font-weight: 700 ; vertical-align: baseline&quot;&gt;float &lt;/span&gt;&lt;span style=&quot;font-family: &amp;#34;menlo&amp;#34; ; background-color: transparent ; vertical-align: baseline&quot;&gt;Avg_wt=&lt;/span&gt;&lt;span style=&quot;font-family: &amp;#34;menlo&amp;#34; ; color: rgb(0 , 0 , 255) ; background-color: transparent ; vertical-align: baseline&quot;&gt;0&lt;/span&gt;&lt;span style=&quot;font-family: &amp;#34;menlo&amp;#34; ; background-color: transparent ; vertical-align: baseline&quot;&gt;;&lt;/span&gt;&lt;/span&gt;" style="rounded=0;whiteSpace=wrap;html=1;" parent="WIyWlLk6GJQsqaUBKTNV-1" vertex="1">
          <mxGeometry x="314.5" y="80" width="199" height="30" as="geometry" />
        </mxCell>
        <mxCell id="hgknwM9cWNxR3NRznvna-7" value="да" style="edgeStyle=orthogonalEdgeStyle;rounded=0;orthogonalLoop=1;jettySize=auto;html=1;exitX=0.5;exitY=1;exitDx=0;exitDy=0;entryX=0.5;entryY=0;entryDx=0;entryDy=0;" parent="WIyWlLk6GJQsqaUBKTNV-1" source="hgknwM9cWNxR3NRznvna-4" target="hgknwM9cWNxR3NRznvna-6" edge="1">
          <mxGeometry x="-0.3333" relative="1" as="geometry">
            <mxPoint as="offset" />
          </mxGeometry>
        </mxCell>
        <mxCell id="hgknwM9cWNxR3NRznvna-10" value="нет" style="edgeStyle=orthogonalEdgeStyle;rounded=0;orthogonalLoop=1;jettySize=auto;html=1;exitX=1;exitY=0.5;exitDx=0;exitDy=0;entryX=1;entryY=0.5;entryDx=0;entryDy=0;" parent="WIyWlLk6GJQsqaUBKTNV-1" source="hgknwM9cWNxR3NRznvna-4" target="hgknwM9cWNxR3NRznvna-9" edge="1">
          <mxGeometry relative="1" as="geometry" />
        </mxCell>
        <mxCell id="hgknwM9cWNxR3NRznvna-4" value="&lt;span id=&quot;docs-internal-guid-5cf2f189-7fff-4664-a52d-865283173cee&quot;&gt;&lt;span style=&quot;font-family: &amp;#34;menlo&amp;#34; ; color: rgb(0 , 0 , 128) ; background-color: transparent ; font-weight: 700 ; vertical-align: baseline&quot;&gt;for&lt;/span&gt;&lt;span style=&quot;font-family: &amp;#34;menlo&amp;#34; ; background-color: transparent ; vertical-align: baseline&quot;&gt;(i=&lt;/span&gt;&lt;span style=&quot;font-family: &amp;#34;menlo&amp;#34; ; color: rgb(0 , 0 , 255) ; background-color: transparent ; vertical-align: baseline&quot;&gt;0&lt;/span&gt;&lt;span style=&quot;font-family: &amp;#34;menlo&amp;#34; ; background-color: transparent ; vertical-align: baseline&quot;&gt;;i&amp;lt;&lt;/span&gt;&lt;span style=&quot;font-family: &amp;#34;menlo&amp;#34; ; color: rgb(0 , 0 , 255) ; background-color: transparent ; vertical-align: baseline&quot;&gt;1&lt;/span&gt;&lt;span style=&quot;font-family: &amp;#34;menlo&amp;#34; ; background-color: transparent ; vertical-align: baseline&quot;&gt;;i++)&lt;/span&gt;&lt;/span&gt;" style="shape=hexagon;perimeter=hexagonPerimeter2;whiteSpace=wrap;html=1;fixedSize=1;size=16;" parent="WIyWlLk6GJQsqaUBKTNV-1" vertex="1">
          <mxGeometry x="362" y="130" width="104" height="20" as="geometry" />
        </mxCell>
        <mxCell id="hgknwM9cWNxR3NRznvna-8" style="edgeStyle=orthogonalEdgeStyle;rounded=0;orthogonalLoop=1;jettySize=auto;html=1;exitX=0;exitY=0.5;exitDx=0;exitDy=0;entryX=0;entryY=0.5;entryDx=0;entryDy=0;" parent="WIyWlLk6GJQsqaUBKTNV-1" source="hgknwM9cWNxR3NRznvna-6" target="hgknwM9cWNxR3NRznvna-4" edge="1">
          <mxGeometry relative="1" as="geometry" />
        </mxCell>
        <mxCell id="hgknwM9cWNxR3NRznvna-6" value="&lt;span id=&quot;docs-internal-guid-3dc02ad3-7fff-7779-08a3-0687e84a6f07&quot;&gt;&lt;span style=&quot;font-family: &amp;#34;menlo&amp;#34; ; background-color: transparent ; vertical-align: baseline&quot;&gt;&amp;nbsp;AT[i]=&lt;/span&gt;&lt;span style=&quot;font-family: &amp;#34;menlo&amp;#34; ; color: rgb(0 , 0 , 255) ; background-color: transparent ; vertical-align: baseline&quot;&gt;0;&lt;br&gt;&lt;/span&gt;&lt;span style=&quot;font-family: &amp;#34;menlo&amp;#34; ; background-color: transparent ; vertical-align: baseline&quot;&gt;BT[i]=&lt;/span&gt;&lt;span style=&quot;font-family: &amp;#34;menlo&amp;#34; ; color: rgb(0 , 0 , 255) ; background-color: transparent ; vertical-align: baseline&quot;&gt;0&lt;/span&gt;&lt;span style=&quot;font-family: &amp;#34;menlo&amp;#34; ; background-color: transparent ; vertical-align: baseline&quot;&gt;;&lt;br&gt;&lt;/span&gt;&lt;span style=&quot;font-family: &amp;#34;menlo&amp;#34; ; background-color: transparent ; vertical-align: baseline&quot;&gt;WT[i]=&lt;font color=&quot;#0000ff&quot; style=&quot;font-size: 12px&quot;&gt;0;&lt;br&gt;&lt;/font&gt;&lt;/span&gt;&lt;span style=&quot;font-family: &amp;#34;menlo&amp;#34; ; background-color: transparent ; vertical-align: baseline&quot;&gt;G[i]=&lt;/span&gt;&lt;span style=&quot;font-family: &amp;#34;menlo&amp;#34; ; color: rgb(0 , 0 , 255) ; background-color: transparent ; vertical-align: baseline&quot;&gt;0&lt;/span&gt;&lt;span style=&quot;font-family: &amp;#34;menlo&amp;#34; ; background-color: transparent ; vertical-align: baseline&quot;&gt;;&lt;/span&gt;&lt;/span&gt;" style="rounded=0;whiteSpace=wrap;html=1;" parent="WIyWlLk6GJQsqaUBKTNV-1" vertex="1">
          <mxGeometry x="379" y="180" width="70" height="60" as="geometry" />
        </mxCell>
        <mxCell id="hgknwM9cWNxR3NRznvna-17" style="edgeStyle=orthogonalEdgeStyle;rounded=0;orthogonalLoop=1;jettySize=auto;html=1;exitX=0.5;exitY=1;exitDx=0;exitDy=0;entryX=0.5;entryY=0;entryDx=0;entryDy=0;" parent="WIyWlLk6GJQsqaUBKTNV-1" source="hgknwM9cWNxR3NRznvna-9" target="hgknwM9cWNxR3NRznvna-13" edge="1">
          <mxGeometry relative="1" as="geometry" />
        </mxCell>
        <mxCell id="hgknwM9cWNxR3NRznvna-9" value="&lt;span id=&quot;docs-internal-guid-b9938d16-7fff-87fe-8735-5b6d89887481&quot;&gt;&lt;span style=&quot;font-family: &amp;#34;menlo&amp;#34; ; background-color: transparent ; vertical-align: baseline&quot;&gt;printf(&lt;/span&gt;&lt;span style=&quot;font-family: &amp;#34;menlo&amp;#34; ; color: rgb(0 , 128 , 0) ; background-color: transparent ; font-weight: 700 ; vertical-align: baseline&quot;&gt;&quot;Enter the number of processes: &lt;/span&gt;&lt;span style=&quot;font-family: &amp;#34;menlo&amp;#34; ; color: rgb(0 , 0 , 128) ; background-color: transparent ; font-weight: 700 ; vertical-align: baseline&quot;&gt;\t&lt;/span&gt;&lt;span style=&quot;font-family: &amp;#34;menlo&amp;#34; ; color: rgb(0 , 128 , 0) ; background-color: transparent ; font-weight: 700 ; vertical-align: baseline&quot;&gt;&quot;&lt;/span&gt;&lt;span style=&quot;font-family: &amp;#34;menlo&amp;#34; ; background-color: transparent ; vertical-align: baseline&quot;&gt;);&lt;/span&gt;&lt;span style=&quot;font-family: &amp;#34;menlo&amp;#34; ; background-color: transparent ; vertical-align: baseline&quot;&gt;&lt;br&gt;&lt;/span&gt;&lt;span style=&quot;font-family: &amp;#34;menlo&amp;#34; ; background-color: transparent ; vertical-align: baseline&quot;&gt;scanf(&lt;/span&gt;&lt;span style=&quot;font-family: &amp;#34;menlo&amp;#34; ; color: rgb(0 , 128 , 0) ; background-color: transparent ; font-weight: 700 ; vertical-align: baseline&quot;&gt;&quot;%d&quot;&lt;/span&gt;&lt;span style=&quot;font-family: &amp;#34;menlo&amp;#34; ; background-color: transparent ; vertical-align: baseline&quot;&gt;,&amp;amp;n);&lt;/span&gt;&lt;/span&gt;" style="rounded=0;whiteSpace=wrap;html=1;" parent="WIyWlLk6GJQsqaUBKTNV-1" vertex="1">
          <mxGeometry x="299" y="250" width="230" height="30" as="geometry" />
        </mxCell>
        <mxCell id="hgknwM9cWNxR3NRznvna-11" value="да" style="edgeStyle=orthogonalEdgeStyle;rounded=0;orthogonalLoop=1;jettySize=auto;html=1;entryX=0.5;entryY=0;entryDx=0;entryDy=0;exitX=0.5;exitY=1;exitDx=0;exitDy=0;" parent="WIyWlLk6GJQsqaUBKTNV-1" source="hgknwM9cWNxR3NRznvna-13" target="hgknwM9cWNxR3NRznvna-15" edge="1">
          <mxGeometry relative="1" as="geometry">
            <mxPoint x="410" y="360" as="sourcePoint" />
          </mxGeometry>
        </mxCell>
        <mxCell id="R54r-c7S1AkfVE86WFoW-2" value="нет" style="edgeStyle=orthogonalEdgeStyle;rounded=0;orthogonalLoop=1;jettySize=auto;html=1;exitX=1;exitY=0.5;exitDx=0;exitDy=0;entryX=0.5;entryY=0;entryDx=0;entryDy=0;" edge="1" parent="WIyWlLk6GJQsqaUBKTNV-1" source="hgknwM9cWNxR3NRznvna-13" target="lT5w_zRqd9ovxjE37Vn4-2">
          <mxGeometry x="-0.8115" relative="1" as="geometry">
            <Array as="points">
              <mxPoint x="530" y="310" />
              <mxPoint x="530" y="420" />
              <mxPoint x="414" y="420" />
            </Array>
            <mxPoint as="offset" />
          </mxGeometry>
        </mxCell>
        <mxCell id="hgknwM9cWNxR3NRznvna-13" value="&lt;span id=&quot;docs-internal-guid-891b484c-7fff-155d-ab43-50a7abf25184&quot;&gt;&lt;span style=&quot;font-family: &amp;#34;menlo&amp;#34; ; color: rgb(0 , 0 , 128) ; background-color: transparent ; font-weight: 700 ; vertical-align: baseline&quot;&gt;for&lt;/span&gt;&lt;span style=&quot;font-family: &amp;#34;menlo&amp;#34; ; background-color: transparent ; vertical-align: baseline&quot;&gt;(i=&lt;/span&gt;&lt;span style=&quot;font-family: &amp;#34;menlo&amp;#34; ; color: rgb(0 , 0 , 255) ; background-color: transparent ; vertical-align: baseline&quot;&gt;0&lt;/span&gt;&lt;span style=&quot;font-family: &amp;#34;menlo&amp;#34; ; background-color: transparent ; vertical-align: baseline&quot;&gt;;i&amp;lt;n;i++)&lt;/span&gt;&lt;/span&gt;" style="shape=hexagon;perimeter=hexagonPerimeter2;whiteSpace=wrap;html=1;fixedSize=1;size=16;" parent="WIyWlLk6GJQsqaUBKTNV-1" vertex="1">
          <mxGeometry x="362" y="300" width="104" height="20" as="geometry" />
        </mxCell>
        <mxCell id="hgknwM9cWNxR3NRznvna-14" style="edgeStyle=orthogonalEdgeStyle;rounded=0;orthogonalLoop=1;jettySize=auto;html=1;exitX=0;exitY=0.5;exitDx=0;exitDy=0;entryX=0;entryY=0.5;entryDx=0;entryDy=0;" parent="WIyWlLk6GJQsqaUBKTNV-1" source="hgknwM9cWNxR3NRznvna-15" target="hgknwM9cWNxR3NRznvna-13" edge="1">
          <mxGeometry relative="1" as="geometry" />
        </mxCell>
        <mxCell id="hgknwM9cWNxR3NRznvna-15" value="&lt;span id=&quot;docs-internal-guid-3accb03e-7fff-7384-5cc4-010843540a68&quot;&gt;&lt;span style=&quot;font-family: &amp;#34;menlo&amp;#34; ; background-color: transparent ; vertical-align: baseline&quot;&gt;&amp;nbsp;&amp;nbsp;&amp;nbsp;&amp;nbsp;printf(&lt;/span&gt;&lt;span style=&quot;font-family: &amp;#34;menlo&amp;#34; ; color: rgb(0 , 128 , 0) ; background-color: transparent ; font-weight: 700 ; vertical-align: baseline&quot;&gt;&quot;Enter the Arrival time &amp;amp; Burst time for process no %d:&quot;&lt;/span&gt;&lt;span style=&quot;font-family: &amp;#34;menlo&amp;#34; ; background-color: transparent ; vertical-align: baseline&quot;&gt;,i );&lt;/span&gt;&lt;span style=&quot;font-family: &amp;#34;menlo&amp;#34; ; background-color: transparent ; vertical-align: baseline&quot;&gt;&lt;br&gt;&lt;/span&gt;&lt;span style=&quot;font-family: &amp;#34;menlo&amp;#34; ; background-color: transparent ; vertical-align: baseline&quot;&gt;&amp;nbsp; &amp;nbsp; scanf(&lt;/span&gt;&lt;span style=&quot;font-family: &amp;#34;menlo&amp;#34; ; color: rgb(0 , 128 , 0) ; background-color: transparent ; font-weight: 700 ; vertical-align: baseline&quot;&gt;&quot;%d&quot;&lt;/span&gt;&lt;span style=&quot;font-family: &amp;#34;menlo&amp;#34; ; background-color: transparent ; vertical-align: baseline&quot;&gt;,&amp;amp;AT[i]);&lt;/span&gt;&lt;span style=&quot;font-family: &amp;#34;menlo&amp;#34; ; background-color: transparent ; vertical-align: baseline&quot;&gt;&lt;br&gt;&lt;/span&gt;&lt;span style=&quot;font-family: &amp;#34;menlo&amp;#34; ; background-color: transparent ; vertical-align: baseline&quot;&gt;&amp;nbsp; &amp;nbsp; scanf(&lt;/span&gt;&lt;span style=&quot;font-family: &amp;#34;menlo&amp;#34; ; color: rgb(0 , 128 , 0) ; background-color: transparent ; font-weight: 700 ; vertical-align: baseline&quot;&gt;&quot;%d&quot;&lt;/span&gt;&lt;span style=&quot;font-family: &amp;#34;menlo&amp;#34; ; background-color: transparent ; vertical-align: baseline&quot;&gt;,&amp;amp;BT[i]);&lt;/span&gt;&lt;/span&gt;" style="rounded=0;whiteSpace=wrap;html=1;" parent="WIyWlLk6GJQsqaUBKTNV-1" vertex="1">
          <mxGeometry x="308" y="350" width="210" height="60" as="geometry" />
        </mxCell>
        <mxCell id="lT5w_zRqd9ovxjE37Vn4-0" value="да" style="edgeStyle=orthogonalEdgeStyle;rounded=0;orthogonalLoop=1;jettySize=auto;html=1;exitX=0.5;exitY=1;exitDx=0;exitDy=0;entryX=0.5;entryY=0;entryDx=0;entryDy=0;" parent="WIyWlLk6GJQsqaUBKTNV-1" source="lT5w_zRqd9ovxjE37Vn4-2" target="lT5w_zRqd9ovxjE37Vn4-4" edge="1">
          <mxGeometry x="-0.5402" relative="1" as="geometry">
            <mxPoint as="offset" />
          </mxGeometry>
        </mxCell>
        <mxCell id="lT5w_zRqd9ovxjE37Vn4-1" value="нет" style="edgeStyle=orthogonalEdgeStyle;rounded=0;orthogonalLoop=1;jettySize=auto;html=1;exitX=1;exitY=0.5;exitDx=0;exitDy=0;entryX=1;entryY=0.5;entryDx=0;entryDy=0;" parent="WIyWlLk6GJQsqaUBKTNV-1" source="lT5w_zRqd9ovxjE37Vn4-2" target="lT5w_zRqd9ovxjE37Vn4-5" edge="1">
          <mxGeometry relative="1" as="geometry" />
        </mxCell>
        <mxCell id="lT5w_zRqd9ovxjE37Vn4-2" value="&lt;span id=&quot;docs-internal-guid-102f3166-7fff-8513-eb58-a7d3057da888&quot;&gt;&lt;span style=&quot;font-family: &amp;#34;menlo&amp;#34; ; color: rgb(0 , 0 , 128) ; background-color: transparent ; font-weight: 700 ; vertical-align: baseline&quot;&gt;for&lt;/span&gt;&lt;span style=&quot;font-family: &amp;#34;menlo&amp;#34; ; background-color: transparent ; vertical-align: baseline&quot;&gt;(i=&lt;/span&gt;&lt;span style=&quot;font-family: &amp;#34;menlo&amp;#34; ; color: rgb(0 , 0 , 255) ; background-color: transparent ; vertical-align: baseline&quot;&gt;0&lt;/span&gt;&lt;span style=&quot;font-family: &amp;#34;menlo&amp;#34; ; background-color: transparent ; vertical-align: baseline&quot;&gt;;i&amp;lt;n;i++)&lt;/span&gt;&lt;/span&gt;" style="shape=hexagon;perimeter=hexagonPerimeter2;whiteSpace=wrap;html=1;fixedSize=1;size=16;" parent="WIyWlLk6GJQsqaUBKTNV-1" vertex="1">
          <mxGeometry x="364.75" y="440" width="94" height="25" as="geometry" />
        </mxCell>
        <mxCell id="lT5w_zRqd9ovxjE37Vn4-3" style="edgeStyle=orthogonalEdgeStyle;rounded=0;orthogonalLoop=1;jettySize=auto;html=1;exitX=0;exitY=0.5;exitDx=0;exitDy=0;entryX=0;entryY=0.5;entryDx=0;entryDy=0;" parent="WIyWlLk6GJQsqaUBKTNV-1" source="lT5w_zRqd9ovxjE37Vn4-4" target="lT5w_zRqd9ovxjE37Vn4-2" edge="1">
          <mxGeometry relative="1" as="geometry" />
        </mxCell>
        <mxCell id="lT5w_zRqd9ovxjE37Vn4-4" value="&lt;span id=&quot;docs-internal-guid-5807392d-7fff-c883-3881-570320dbbb81&quot;&gt;&lt;span style=&quot;font-family: &amp;#34;menlo&amp;#34; ; background-color: transparent ; vertical-align: baseline&quot;&gt;&amp;nbsp;&amp;nbsp;&amp;nbsp;&amp;nbsp;WT[i]=G[i] - AT[i];&lt;/span&gt;&lt;span style=&quot;font-family: &amp;#34;menlo&amp;#34; ; background-color: transparent ; vertical-align: baseline&quot;&gt;&lt;br&gt;&lt;/span&gt;&lt;span style=&quot;font-family: &amp;#34;menlo&amp;#34; ; background-color: transparent ; vertical-align: baseline&quot;&gt;&amp;nbsp; &amp;nbsp; Avg_wt = Avg_wt + WT[i];&lt;/span&gt;&lt;span style=&quot;font-family: &amp;#34;menlo&amp;#34; ; background-color: transparent ; vertical-align: baseline&quot;&gt;&lt;br&gt;&lt;/span&gt;&lt;span style=&quot;font-family: &amp;#34;menlo&amp;#34; ; background-color: transparent ; vertical-align: baseline&quot;&gt;&amp;nbsp; &amp;nbsp; G[i+&lt;/span&gt;&lt;span style=&quot;font-family: &amp;#34;menlo&amp;#34; ; color: rgb(0 , 0 , 255) ; background-color: transparent ; vertical-align: baseline&quot;&gt;1&lt;/span&gt;&lt;span style=&quot;font-family: &amp;#34;menlo&amp;#34; ; background-color: transparent ; vertical-align: baseline&quot;&gt;]= G[i]+ BT[i];&lt;/span&gt;&lt;/span&gt;" style="rounded=0;whiteSpace=wrap;html=1;" parent="WIyWlLk6GJQsqaUBKTNV-1" vertex="1">
          <mxGeometry x="333.5" y="490" width="156.5" height="50" as="geometry" />
        </mxCell>
        <mxCell id="R54r-c7S1AkfVE86WFoW-9" style="edgeStyle=orthogonalEdgeStyle;rounded=0;orthogonalLoop=1;jettySize=auto;html=1;exitX=0.5;exitY=1;exitDx=0;exitDy=0;entryX=0.5;entryY=0;entryDx=0;entryDy=0;" edge="1" parent="WIyWlLk6GJQsqaUBKTNV-1" source="lT5w_zRqd9ovxjE37Vn4-5" target="R54r-c7S1AkfVE86WFoW-5">
          <mxGeometry relative="1" as="geometry" />
        </mxCell>
        <mxCell id="lT5w_zRqd9ovxjE37Vn4-5" value="&lt;span id=&quot;docs-internal-guid-426dd591-7fff-01a0-6d3f-17d26a59819c&quot;&gt;&lt;span style=&quot;font-family: &amp;#34;menlo&amp;#34; ; background-color: transparent ; vertical-align: baseline&quot;&gt;Avg_wt = Avg_wt/n ;&lt;/span&gt;&lt;span style=&quot;font-family: &amp;#34;menlo&amp;#34; ; background-color: transparent ; vertical-align: baseline&quot;&gt;&lt;br&gt;&lt;/span&gt;&lt;span style=&quot;font-family: &amp;#34;menlo&amp;#34; ; background-color: transparent ; vertical-align: baseline&quot;&gt;printf(&lt;/span&gt;&lt;span style=&quot;font-family: &amp;#34;menlo&amp;#34; ; color: rgb(0 , 128 , 0) ; background-color: transparent ; font-weight: 700 ; vertical-align: baseline&quot;&gt;&quot;&lt;/span&gt;&lt;span style=&quot;font-family: &amp;#34;menlo&amp;#34; ; color: rgb(0 , 0 , 128) ; background-color: transparent ; font-weight: 700 ; vertical-align: baseline&quot;&gt;\n\t&lt;/span&gt;&lt;span style=&quot;font-family: &amp;#34;menlo&amp;#34; ; color: rgb(0 , 128 , 0) ; background-color: transparent ; font-weight: 700 ; vertical-align: baseline&quot;&gt; Process&lt;/span&gt;&lt;span style=&quot;font-family: &amp;#34;menlo&amp;#34; ; color: rgb(0 , 0 , 128) ; background-color: transparent ; font-weight: 700 ; vertical-align: baseline&quot;&gt;\t&lt;/span&gt;&lt;span style=&quot;font-family: &amp;#34;menlo&amp;#34; ; color: rgb(0 , 128 , 0) ; background-color: transparent ; font-weight: 700 ; vertical-align: baseline&quot;&gt; Arrival time &lt;/span&gt;&lt;span style=&quot;font-family: &amp;#34;menlo&amp;#34; ; color: rgb(0 , 0 , 128) ; background-color: transparent ; font-weight: 700 ; vertical-align: baseline&quot;&gt;\t&lt;/span&gt;&lt;span style=&quot;font-family: &amp;#34;menlo&amp;#34; ; color: rgb(0 , 128 , 0) ; background-color: transparent ; font-weight: 700 ; vertical-align: baseline&quot;&gt; Ext_Time&lt;/span&gt;&lt;span style=&quot;font-family: &amp;#34;menlo&amp;#34; ; color: rgb(0 , 0 , 128) ; background-color: transparent ; font-weight: 700 ; vertical-align: baseline&quot;&gt;\t&lt;/span&gt;&lt;span style=&quot;font-family: &amp;#34;menlo&amp;#34; ; color: rgb(0 , 128 , 0) ; background-color: transparent ; font-weight: 700 ; vertical-align: baseline&quot;&gt; Waiting time&lt;/span&gt;&lt;span style=&quot;font-family: &amp;#34;menlo&amp;#34; ; color: rgb(0 , 0 , 128) ; background-color: transparent ; font-weight: 700 ; vertical-align: baseline&quot;&gt;\t \n&lt;/span&gt;&lt;span style=&quot;font-family: &amp;#34;menlo&amp;#34; ; color: rgb(0 , 128 , 0) ; background-color: transparent ; font-weight: 700 ; vertical-align: baseline&quot;&gt;&quot;&lt;/span&gt;&lt;span style=&quot;font-family: &amp;#34;menlo&amp;#34; ; background-color: transparent ; vertical-align: baseline&quot;&gt;);&lt;/span&gt;&lt;/span&gt;" style="rounded=0;whiteSpace=wrap;html=1;" parent="WIyWlLk6GJQsqaUBKTNV-1" vertex="1">
          <mxGeometry x="314.5" y="560" width="204" height="50" as="geometry" />
        </mxCell>
        <mxCell id="R54r-c7S1AkfVE86WFoW-3" value="да" style="edgeStyle=orthogonalEdgeStyle;rounded=0;orthogonalLoop=1;jettySize=auto;html=1;exitX=0.5;exitY=1;exitDx=0;exitDy=0;entryX=0.5;entryY=0;entryDx=0;entryDy=0;" edge="1" parent="WIyWlLk6GJQsqaUBKTNV-1" source="R54r-c7S1AkfVE86WFoW-5" target="R54r-c7S1AkfVE86WFoW-7">
          <mxGeometry x="-0.5402" relative="1" as="geometry">
            <mxPoint as="offset" />
          </mxGeometry>
        </mxCell>
        <mxCell id="R54r-c7S1AkfVE86WFoW-11" value="нет" style="edgeStyle=orthogonalEdgeStyle;rounded=0;orthogonalLoop=1;jettySize=auto;html=1;exitX=1;exitY=0.5;exitDx=0;exitDy=0;entryX=1;entryY=0.5;entryDx=0;entryDy=0;" edge="1" parent="WIyWlLk6GJQsqaUBKTNV-1" source="R54r-c7S1AkfVE86WFoW-5" target="R54r-c7S1AkfVE86WFoW-10">
          <mxGeometry x="-0.6301" relative="1" as="geometry">
            <Array as="points">
              <mxPoint x="510" y="642" />
              <mxPoint x="510" y="758" />
            </Array>
            <mxPoint as="offset" />
          </mxGeometry>
        </mxCell>
        <mxCell id="R54r-c7S1AkfVE86WFoW-5" value="&lt;span id=&quot;docs-internal-guid-3915b994-7fff-bed4-439e-ad74ae3a68fc&quot;&gt;&lt;span style=&quot;font-family: &amp;#34;menlo&amp;#34; ; color: rgb(0 , 0 , 128) ; background-color: transparent ; font-weight: 700 ; vertical-align: baseline&quot;&gt;for&lt;/span&gt;&lt;span style=&quot;font-family: &amp;#34;menlo&amp;#34; ; background-color: transparent ; vertical-align: baseline&quot;&gt;(i=&lt;/span&gt;&lt;span style=&quot;font-family: &amp;#34;menlo&amp;#34; ; color: rgb(0 , 0 , 255) ; background-color: transparent ; vertical-align: baseline&quot;&gt;0&lt;/span&gt;&lt;span style=&quot;font-family: &amp;#34;menlo&amp;#34; ; background-color: transparent ; vertical-align: baseline&quot;&gt;;i&amp;lt;n;i++)&lt;/span&gt;&lt;/span&gt;" style="shape=hexagon;perimeter=hexagonPerimeter2;whiteSpace=wrap;html=1;fixedSize=1;size=13.029999999999973;" vertex="1" parent="WIyWlLk6GJQsqaUBKTNV-1">
          <mxGeometry x="364.75" y="630" width="94" height="25" as="geometry" />
        </mxCell>
        <mxCell id="R54r-c7S1AkfVE86WFoW-6" style="edgeStyle=orthogonalEdgeStyle;rounded=0;orthogonalLoop=1;jettySize=auto;html=1;exitX=0;exitY=0.5;exitDx=0;exitDy=0;entryX=0;entryY=0.5;entryDx=0;entryDy=0;" edge="1" parent="WIyWlLk6GJQsqaUBKTNV-1" source="R54r-c7S1AkfVE86WFoW-7" target="R54r-c7S1AkfVE86WFoW-5">
          <mxGeometry relative="1" as="geometry" />
        </mxCell>
        <mxCell id="R54r-c7S1AkfVE86WFoW-7" value="&lt;span id=&quot;docs-internal-guid-8f5e4126-7fff-fed5-b4a5-9017ed34b94c&quot;&gt;&lt;span style=&quot;font-family: &amp;#34;menlo&amp;#34; ; background-color: transparent ; vertical-align: baseline&quot;&gt;printf(&lt;/span&gt;&lt;span style=&quot;font-family: &amp;#34;menlo&amp;#34; ; color: rgb(0 , 128 , 0) ; background-color: transparent ; font-weight: 700 ; vertical-align: baseline&quot;&gt;&quot;&lt;/span&gt;&lt;span style=&quot;font-family: &amp;#34;menlo&amp;#34; ; color: rgb(0 , 0 , 128) ; background-color: transparent ; font-weight: 700 ; vertical-align: baseline&quot;&gt;\t&lt;/span&gt;&lt;span style=&quot;font-family: &amp;#34;menlo&amp;#34; ; color: rgb(0 , 128 , 0) ; background-color: transparent ; font-weight: 700 ; vertical-align: baseline&quot;&gt; %d&lt;/span&gt;&lt;span style=&quot;font-family: &amp;#34;menlo&amp;#34; ; color: rgb(0 , 0 , 128) ; background-color: transparent ; font-weight: 700 ; vertical-align: baseline&quot;&gt;\t \t&lt;/span&gt;&lt;span style=&quot;font-family: &amp;#34;menlo&amp;#34; ; color: rgb(0 , 128 , 0) ; background-color: transparent ; font-weight: 700 ; vertical-align: baseline&quot;&gt; %d&lt;/span&gt;&lt;span style=&quot;font-family: &amp;#34;menlo&amp;#34; ; color: rgb(0 , 0 , 128) ; background-color: transparent ; font-weight: 700 ; vertical-align: baseline&quot;&gt;\t\t&lt;/span&gt;&lt;span style=&quot;font-family: &amp;#34;menlo&amp;#34; ; color: rgb(0 , 128 , 0) ; background-color: transparent ; font-weight: 700 ; vertical-align: baseline&quot;&gt; %d&lt;/span&gt;&lt;span style=&quot;font-family: &amp;#34;menlo&amp;#34; ; color: rgb(0 , 0 , 128) ; background-color: transparent ; font-weight: 700 ; vertical-align: baseline&quot;&gt;\t \t&lt;/span&gt;&lt;span style=&quot;font-family: &amp;#34;menlo&amp;#34; ; color: rgb(0 , 128 , 0) ; background-color: transparent ; font-weight: 700 ; vertical-align: baseline&quot;&gt; %d&lt;/span&gt;&lt;span style=&quot;font-family: &amp;#34;menlo&amp;#34; ; color: rgb(0 , 0 , 128) ; background-color: transparent ; font-weight: 700 ; vertical-align: baseline&quot;&gt;\t\t \n&lt;/span&gt;&lt;span style=&quot;font-family: &amp;#34;menlo&amp;#34; ; color: rgb(0 , 128 , 0) ; background-color: transparent ; font-weight: 700 ; vertical-align: baseline&quot;&gt;&quot;&lt;/span&gt;&lt;span style=&quot;font-family: &amp;#34;menlo&amp;#34; ; background-color: transparent ; vertical-align: baseline&quot;&gt;,i,AT[i],BT[i],WT[i]);&lt;/span&gt;&lt;/span&gt;" style="rounded=0;whiteSpace=wrap;html=1;" vertex="1" parent="WIyWlLk6GJQsqaUBKTNV-1">
          <mxGeometry x="323.99" y="680" width="175.52" height="40" as="geometry" />
        </mxCell>
        <mxCell id="R54r-c7S1AkfVE86WFoW-10" value="Конец" style="ellipse;whiteSpace=wrap;html=1;" vertex="1" parent="WIyWlLk6GJQsqaUBKTNV-1">
          <mxGeometry x="370.25" y="735" width="83" height="45" as="geometry" />
        </mxCell>
      </root>
    </mxGraphModel>
  </diagram>
</mxfile>
